<?xml version="1.0" standalone="no"?>
<!DOCTYPE svg PUBLIC "-//W3C//DTD SVG 20010904//EN"
 "http://www.w3.org/TR/2001/REC-SVG-20010904/DTD/svg10.dtd">
<svg version="1.0" xmlns="http://www.w3.org/2000/svg"
 width="1600.000000pt" height="900.000000pt" viewBox="0 0 1600.000000 900.000000"
 preserveAspectRatio="xMidYMid meet">

<g transform="translate(0.000000,900.000000) scale(0.100000,-0.100000)"
fill="#000000" stroke="none">
<path d="M0 4500 l0 -4500 8000 0 8000 0 0 4500 0 4500 -8000 0 -8000 0 0
-4500z m5270 850 l5 -245 111 -3 c83 -2 114 1 122 11 6 7 13 61 14 123 l3 109
109 3 c61 1 116 8 123 14 9 7 13 43 13 124 l0 114 370 0 370 0 0 -352 c0 -194
-4 -358 -8 -365 -5 -8 -46 -13 -122 -15 l-115 -3 -5 -120 -5 -120 -120 -5
-120 -5 0 -125 0 -125 120 -5 120 -5 3 -117 c3 -138 -9 -127 147 -131 l100 -2
0 -360 0 -360 -365 0 -365 0 -3 109 c-1 61 -8 116 -14 123 -7 9 -43 13 -124
13 l-113 0 -3 118 -3 117 -114 3 c-63 1 -119 -2 -124 -7 -5 -5 -8 -103 -8
-231 2 -157 -1 -226 -10 -236 -9 -12 -73 -14 -370 -14 l-359 0 0 1110 0 1110
368 -2 367 -3 5 -245z m2220 -847 c0 -601 0 -1100 0 -1108 0 -13 -44 -15 -357
-13 l-358 3 -5 1098 c-3 603 -3 1102 -2 1107 3 7 127 9 363 8 l359 -3 0 -1092z
m1742 1087 c2 -5 1 -169 -2 -362 l-5 -353 -355 -3 c-320 -2 -356 -4 -367 -19
-10 -13 -13 -103 -13 -370 0 -341 1 -353 20 -363 13 -7 138 -10 357 -10 186 0
344 0 351 0 9 0 12 -80 12 -365 l0 -365 -610 0 -610 0 -5 23 c-3 12 -6 67 -8
122 l-2 100 -120 5 -120 5 0 855 0 855 120 5 120 5 3 110 c1 61 4 116 7 123 6
15 1221 18 1227 2z m998 -228 c0 -172 3 -241 12 -250 17 -17 222 -16 236 1 6
7 13 62 14 123 l3 109 115 5 115 5 5 120 5 120 368 3 367 2 -2 -362 -3 -363
-117 -3 c-138 -3 -127 9 -131 -147 l-2 -100 -120 -5 -120 -5 -3 -114 c-2 -75
1 -118 9 -127 9 -10 40 -14 125 -14 l114 0 0 -114 c0 -87 3 -116 14 -126 10
-8 50 -11 123 -9 l108 3 3 -367 2 -367 -359 0 c-299 0 -361 2 -370 14 -8 10
-12 49 -10 115 1 56 -1 104 -5 108 -4 5 -58 10 -119 13 l-112 5 -2 103 c0 56
-4 109 -7 118 -5 12 -26 14 -128 12 l-123 -3 -3 -243 -2 -242 -368 2 -367 3
-3 1108 -2 1107 370 0 370 0 0 -238z"/>
</g>
</svg>
