<svg version="1.1" id="Layer_1" xmlns="http://www.w3.org/2000/svg" xmlns:xlink="http://www.w3.org/1999/xlink" x="0px" y="0px"
	 width="100%" viewBox="0 0 1000 1000" enable-background="new 0 0 1000 1000" xml:space="preserve">
<path fill="#000000" opacity="1.000000" stroke="none" 
	d="
M665.000000,1001.000000 
	C443.333344,1001.000000 222.166672,1001.000000 1.000000,1001.000000 
	C1.000000,667.666687 1.000000,334.333344 1.000000,1.000000 
	C334.333344,1.000000 667.666687,1.000000 1001.000000,1.000000 
	C1001.000000,334.333344 1001.000000,667.666687 1001.000000,1001.000000 
	C889.166687,1001.000000 777.333313,1001.000000 665.000000,1001.000000 
M501.036713,223.928726 
	C501.036713,249.667572 501.036713,275.406433 501.036713,301.123474 
	C473.958740,301.123474 447.714417,301.123474 421.059296,301.123474 
	C421.059296,247.966797 421.059296,195.202469 421.059296,142.324890 
	C341.119385,142.324890 261.594818,142.324890 182.244385,142.324890 
	C182.244385,381.752014 182.244385,620.789185 182.244385,859.723877 
	C262.046661,859.723877 341.449310,859.723877 421.312378,859.723877 
	C421.312378,806.617676 421.312378,753.859985 421.312378,700.832764 
	C448.004303,700.832764 474.234222,700.832764 501.168701,700.832764 
	C501.168701,727.093323 501.168701,753.042664 501.096375,779.544128 
	C501.397675,779.692993 501.698944,779.841797 502.920380,780.182800 
	C528.696228,780.182800 554.472107,780.182800 580.940674,780.182800 
	C580.940674,807.126953 580.940674,833.480469 580.940674,859.741577 
	C661.027893,859.741577 740.418335,859.741577 819.860718,859.741577 
	C819.860718,780.020996 819.860718,700.633301 819.860718,620.709900 
	C793.343689,620.709900 767.120667,620.709900 740.370728,620.709900 
	C740.370728,593.940918 740.370728,567.700745 740.370728,540.810547 
	C713.896729,540.810547 687.953918,540.810547 661.674622,540.502136 
	C661.448120,540.294128 661.193420,540.129822 660.708496,539.089417 
	C660.777771,513.390137 660.847107,487.690887 661.319275,461.782471 
	C661.568481,461.608917 661.799011,461.413330 662.941833,461.093109 
	C688.557678,461.093109 714.173523,461.093109 740.483276,461.093109 
	C740.483276,434.213928 740.483276,407.843750 740.483276,380.962769 
	C767.410034,380.962769 793.643250,380.962769 819.819946,380.962769 
	C819.819946,301.055695 819.819946,221.673691 819.819946,142.214905 
	C740.087585,142.214905 660.696472,142.214905 580.619141,142.214905 
	C580.619141,168.845978 580.619141,195.205276 580.619141,221.785461 
	C575.609863,221.785461 571.285706,221.772888 566.961609,221.787567 
	C545.308228,221.861115 523.654846,221.941803 501.449005,222.023712 
	C501.355560,222.349014 501.262115,222.674301 501.036713,223.928726 
z"/>
<path fill="#53FC19" opacity="1.000000" stroke="none" 
	d="
M660.916382,461.991638 
	C660.847107,487.690887 660.777771,513.390137 660.832031,539.836792 
	C661.307373,540.659668 661.659302,540.735107 662.011169,540.810547 
	C687.953918,540.810547 713.896729,540.810547 740.370728,540.810547 
	C740.370728,567.700745 740.370728,593.940918 740.370728,620.709900 
	C767.120667,620.709900 793.343689,620.709900 819.860718,620.709900 
	C819.860718,700.633301 819.860718,780.020996 819.860718,859.741577 
	C740.418335,859.741577 661.027893,859.741577 580.940674,859.741577 
	C580.940674,833.480469 580.940674,807.126953 580.940674,780.182800 
	C554.472107,780.182800 528.696228,780.182800 502.349976,779.898254 
	C501.604980,779.377991 501.401367,779.170776 501.168701,778.992065 
	C501.168701,753.042664 501.168701,727.093323 501.168701,700.832764 
	C474.234222,700.832764 448.004303,700.832764 421.312378,700.832764 
	C421.312378,753.859985 421.312378,806.617676 421.312378,859.723877 
	C341.449310,859.723877 262.046661,859.723877 182.244385,859.723877 
	C182.244385,620.789185 182.244385,381.752014 182.244385,142.324890 
	C261.594818,142.324890 341.119385,142.324890 421.059296,142.324890 
	C421.059296,195.202469 421.059296,247.966797 421.059296,301.123474 
	C447.714417,301.123474 473.958740,301.123474 501.036713,301.123474 
	C501.036713,275.406433 501.036713,249.667572 501.266113,223.322723 
	C501.705292,222.514313 501.873932,222.282074 502.001465,222.019989 
	C523.654846,221.941803 545.308228,221.861115 566.961609,221.787567 
	C571.285706,221.772888 575.609863,221.785461 580.619141,221.785461 
	C580.619141,195.205276 580.619141,168.845978 580.619141,142.214905 
	C660.696472,142.214905 740.087585,142.214905 819.819946,142.214905 
	C819.819946,221.673691 819.819946,301.055695 819.819946,380.962769 
	C793.643250,380.962769 767.410034,380.962769 740.483276,380.962769 
	C740.483276,407.843750 740.483276,434.213928 740.483276,461.093109 
	C714.173523,461.093109 688.557678,461.093109 662.192749,461.100922 
	C661.267883,461.403046 661.092102,461.697327 660.916382,461.991638 
z"/>
<path fill="#49DE15" opacity="1.000000" stroke="none" 
	d="
M501.725220,222.021851 
	C501.873932,222.282074 501.705292,222.514313 501.332092,222.858154 
	C501.262115,222.674301 501.355560,222.349014 501.725220,222.021851 
z"/>
<path fill="#0A1F03" opacity="1.000000" stroke="none" 
	d="
M661.117798,461.887024 
	C661.092102,461.697327 661.267883,461.403046 661.727234,461.152222 
	C661.799011,461.413330 661.568481,461.608917 661.117798,461.887024 
z"/>
<path fill="#0A1F03" opacity="1.000000" stroke="none" 
	d="
M661.842896,540.656372 
	C661.659302,540.735107 661.307373,540.659668 660.933044,540.296692 
	C661.193420,540.129822 661.448120,540.294128 661.842896,540.656372 
z"/>
<path fill="#49DE15" opacity="1.000000" stroke="none" 
	d="
M501.132538,779.268066 
	C501.401367,779.170776 501.604980,779.377991 501.889893,779.802185 
	C501.698944,779.841797 501.397675,779.692993 501.132538,779.268066 
z"/>
</svg>